<svg xmlns="http://www.w3.org/2000/svg" xmlns:xlink="http://www.w3.org/1999/xlink" width="150" zoomAndPan="magnify" viewBox="0 0 375 74.999997" height="50" preserveAspectRatio="xMidYMid meet" version="1.0"><defs><g/><clipPath id="b6a719e2e8"><path d="M 39.644531 2.378906 L 92.128906 2.378906 L 92.128906 72.085938 L 39.644531 72.085938 Z M 39.644531 2.378906 " clip-rule="nonzero"/></clipPath><clipPath id="b76f3fee8c"><path d="M 39.644531 54.589844 L 39.644531 19.929688 L 92.128906 2.433594 L 92.128906 72.085938 Z M 39.644531 54.589844 " clip-rule="nonzero"/></clipPath><clipPath id="1276e7dd47"><path d="M 17.117188 12.53125 L 39.636719 12.53125 L 39.636719 62.148438 L 17.117188 62.148438 Z M 17.117188 12.53125 " clip-rule="nonzero"/></clipPath><clipPath id="6d5ed0b47e"><path d="M 39.636719 20.039062 L 39.636719 54.632812 L 17.117188 62.136719 L 17.117188 12.53125 Z M 39.636719 20.039062 " clip-rule="nonzero"/></clipPath></defs><g clip-path="url(#b6a719e2e8)"><g clip-path="url(#b76f3fee8c)"><path fill="#358185" d="M 39.644531 72.085938 L 39.644531 2.378906 L 92.128906 2.378906 L 92.128906 72.085938 Z M 39.644531 72.085938 " fill-opacity="1" fill-rule="nonzero"/></g></g><g clip-path="url(#1276e7dd47)"><g clip-path="url(#6d5ed0b47e)"><path fill="#55b6bc" d="M 39.636719 12.53125 L 39.636719 62.148438 L 17.117188 62.148438 L 17.117188 12.53125 Z M 39.636719 12.53125 " fill-opacity="1" fill-rule="nonzero"/></g></g><path stroke-linecap="butt" transform="matrix(0, -0.622119, 0.622119, 0, 36.530161, 57.331742)" fill="none" stroke-linejoin="miter" d="M -0.000465718 4.999787 L 72.018971 4.999787 " stroke="#ffffff" stroke-width="10" stroke-opacity="1" stroke-miterlimit="4"/><g fill="#282828" fill-opacity="1"><g transform="translate(117.05251, 36.835142)"><g><path d="M 14.0625 -18.8125 L 14.0625 1.828125 L 10.765625 1.828125 L 10.765625 -18.8125 C 7.296875 -11.632812 5.546875 -8.03125 5.515625 -8 L 1.515625 -8 L 10.140625 -25.125 L 2.625 -25.125 L 2.625 -28.375 L 10.765625 -28.375 L 10.765625 -34.15625 L 14.0625 -36.15625 L 14.0625 -28.375 L 20.90625 -28.375 L 19.96875 -25.125 L 14.0625 -25.125 L 19.96875 -14.640625 L 17.75 -10.671875 Z M 42.609375 -25.125 L 34.875 -25.125 L 44.703125 -6.671875 L 40.703125 -6.671875 L 34.03125 -19.078125 L 34.03125 1.734375 L 30.6875 1.734375 L 30.6875 -18.953125 L 23.703125 -6.671875 L 19.578125 -6.671875 L 29.984375 -25.125 L 23.578125 -25.125 L 24.59375 -28.375 L 30.6875 -28.375 L 30.6875 -34.15625 L 34.03125 -36.203125 L 34.03125 -28.375 L 42.609375 -28.375 Z M 42.609375 -25.125 "/></g></g></g><g fill="#282828" fill-opacity="1"><g transform="translate(162.587949, 36.835142)"><g><path d="M 34.953125 -25.046875 L 34.953125 -22.46875 L 10.5 -22.46875 L 10.5 -24.953125 L 21.078125 -24.953125 L 21.078125 -27.265625 L 13.609375 -27.265625 L 13.609375 -29.625 L 21.078125 -29.625 L 21.078125 -31.1875 L 24.15625 -32.15625 L 24.15625 -29.625 L 31.578125 -29.625 L 31.578125 -27.265625 L 24.15625 -27.265625 L 24.15625 -25.046875 Z M 15.4375 -18.140625 L 15.4375 -14.9375 L 30.15625 -14.9375 L 30.15625 -18.140625 Z M 7.109375 -1.515625 L 38.34375 -1.515625 L 38.34375 -33 L 7.109375 -33 Z M 3.875 -36.125 L 41.671875 -36.125 L 41.671875 1.5625 L 3.875 1.5625 Z M 34.609375 -11.78125 L 34.609375 -8.8125 L 31.578125 -8.234375 L 34.609375 -6.09375 L 34.609375 -2.796875 L 23.53125 -10.234375 L 23.53125 -2.796875 L 20.5 -4 L 20.5 -9.5625 L 10.5 -4.5 L 10.5 -7.609375 L 20.5 -12.671875 L 12.984375 -12.671875 L 12.984375 -20.375 L 32.78125 -20.375 L 32.78125 -12.671875 L 24.515625 -12.671875 L 28.28125 -10.40625 Z M 34.609375 -11.78125 "/></g></g></g><g fill="#282828" fill-opacity="1"><g transform="translate(208.123389, 36.835142)"><g><path d="M 15.796875 -13.78125 L 16.6875 -22.375 L 19.703125 -22.375 L 18.71875 -13.78125 Z M 15.796875 -6.84375 L 15.796875 -3.6875 C 7.578125 -1.550781 2.832031 -0.320312 1.5625 0 L 1.5625 -3.515625 C 2.15625 -3.628906 4.035156 -4.054688 7.203125 -4.796875 L 7.203125 -17.125 L 2.671875 -17.125 L 2.671875 -20.1875 L 7.203125 -20.1875 L 7.203125 -31.671875 L 2.09375 -31.671875 L 2.09375 -34.78125 L 15.34375 -34.78125 L 13.34375 -31.71875 L 10.3125 -31.671875 L 10.3125 -20.1875 L 14.671875 -20.1875 L 14.671875 -17.125 L 10.3125 -17.125 L 10.3125 -5.515625 Z M 25.75 -34.921875 L 22.78125 1.875 L 18.90625 1.875 L 22.109375 -34.921875 Z M 36.734375 -1.328125 L 43.546875 -1.328125 L 43.546875 1.875 L 24.734375 1.875 L 25.09375 -1.328125 L 33.53125 -1.328125 L 33.53125 -15.34375 L 28.5625 -15.34375 L 28.859375 -18.453125 L 33.53125 -18.453125 L 33.53125 -31.890625 L 27.796875 -31.890625 L 28.109375 -34.921875 L 41.9375 -34.921875 L 41.140625 -31.890625 L 36.734375 -31.890625 L 36.734375 -18.453125 L 41.9375 -18.453125 L 41.546875 -15.34375 L 36.734375 -15.34375 Z M 36.734375 -1.328125 "/></g></g></g><g fill="#282828" fill-opacity="1"><g transform="translate(253.658828, 36.835142)"><g><path d="M 12.765625 -26.6875 L 12.765625 -33.09375 L 7.5625 -33.09375 L 7.5625 -26.6875 Z M 7.5625 -7.296875 L 12.765625 -8.3125 L 12.765625 -14.546875 L 7.5625 -14.546875 Z M 7.5625 -23.84375 L 7.5625 -17.34375 L 12.765625 -17.34375 L 12.765625 -23.84375 Z M 18.234375 -33.09375 L 15.65625 -33.09375 L 15.65625 3.46875 L 12.765625 3.46875 L 12.765625 -5.34375 C 8.046875 -4.363281 4.382812 -3.617188 1.78125 -3.109375 L 1.78125 -6.234375 C 2.070312 -6.285156 2.515625 -6.375 3.109375 -6.5 C 3.765625 -6.613281 4.269531 -6.703125 4.625 -6.765625 L 4.625 -33.09375 L 1.203125 -33.09375 L 2.265625 -36.15625 L 19.34375 -36.15625 Z M 30.15625 -22.78125 L 29.84375 -18.640625 L 27.9375 -18.453125 C 26.445312 -18.335938 24.296875 -18.144531 21.484375 -17.875 C 19.703125 -17.695312 18.410156 -17.582031 17.609375 -17.53125 L 17.4375 -20.0625 L 19.609375 -20.1875 L 23.046875 -25.265625 L 17.921875 -30.375 L 19.484375 -32.296875 L 22.328125 -36.203125 L 25.703125 -36.203125 C 25.441406 -35.734375 24.863281 -34.851562 23.96875 -33.5625 C 23.082031 -32.269531 22.328125 -31.164062 21.703125 -30.25 C 22.617188 -29.320312 23.476562 -28.429688 24.28125 -27.578125 L 27.3125 -32.296875 L 29.578125 -31.265625 L 22.59375 -20.453125 L 26.828125 -20.765625 L 27.046875 -22.546875 Z M 34.921875 -14.765625 L 34.921875 -7.46875 L 39.3125 -7.46875 L 39.3125 -14.765625 L 41.9375 -14.765625 L 41.9375 -4.984375 L 34.921875 -4.984375 L 34.921875 3.0625 L 32.46875 3.0625 L 32.46875 -14.765625 Z M 25.75 -3.34375 L 25.75 -4.9375 L 19.078125 -4.9375 L 19.078125 -14.71875 L 21.703125 -14.71875 L 21.703125 -7.515625 L 25.75 -7.515625 L 25.796875 -14.71875 L 28.59375 -14.71875 L 28.59375 -1.953125 L 19.078125 3.609375 L 19.078125 0.625 Z M 43.28125 -23.046875 L 42.5625 -18.765625 L 31.21875 -17.609375 L 30.90625 -20.15625 L 32.828125 -20.328125 L 35.578125 -25.390625 L 30.46875 -30.515625 L 32.03125 -32.421875 L 34.875 -36.34375 L 38.25 -36.34375 C 37.988281 -35.863281 37.410156 -34.976562 36.515625 -33.6875 C 35.628906 -32.40625 34.875 -31.300781 34.25 -30.375 C 35.164062 -29.457031 36.023438 -28.566406 36.828125 -27.703125 L 39.59375 -32.515625 L 42.125 -31.40625 L 36.125 -20.640625 L 40.203125 -21 L 40.609375 -22.90625 Z M 43.28125 -23.046875 "/></g></g></g><g fill="#282828" fill-opacity="1"><g transform="translate(119.745301, 71.99709)"><g><path d="M 10.832031 0 L 1.964844 0 L 1.964844 -17.757812 L 4.40625 -17.757812 L 4.40625 -2.269531 L 10.832031 -2.269531 Z M 10.832031 0 "/></g></g></g><g fill="#282828" fill-opacity="1"><g transform="translate(135.48261, 71.99709)"><g><path d="M 6.128906 0 L 11.03125 -17.757812 L 13.472656 -17.757812 L 8.714844 0 Z M 0.925781 -12.472656 C 0.925781 -13.230469 0.988281 -14.011719 1.121094 -14.816406 C 1.25 -15.617188 1.46875 -16.597656 1.777344 -17.757812 L 4.175781 -17.757812 C 3.851562 -16.546875 3.625 -15.550781 3.496094 -14.777344 C 3.367188 -14.003906 3.304688 -13.242188 3.304688 -12.492188 C 3.304688 -10.839844 3.753906 -9.570312 4.648438 -8.683594 C 5.546875 -7.796875 6.808594 -7.351562 8.433594 -7.351562 L 9.082031 -7.351562 L 9.082031 -5.0625 L 8.433594 -5.0625 C 6.863281 -5.0625 5.515625 -5.355469 4.394531 -5.941406 C 3.277344 -6.527344 2.417969 -7.375 1.820312 -8.480469 C 1.222656 -9.589844 0.925781 -10.917969 0.925781 -12.472656 Z M 0.925781 -12.472656 "/></g></g></g><g fill="#282828" fill-opacity="1"><g transform="translate(153.5148, 71.99709)"><g><path d="M 16.9375 -7.460938 L 19.460938 -7.460938 C 19.246094 -5.996094 18.710938 -4.679688 17.851562 -3.519531 C 16.992188 -2.355469 15.914062 -1.4375 14.617188 -0.761719 C 13.316406 -0.0859375 11.890625 0.253906 10.332031 0.253906 C 9.050781 0.253906 7.851562 0.0195312 6.734375 -0.445312 C 5.617188 -0.910156 4.636719 -1.558594 3.789062 -2.398438 C 2.941406 -3.234375 2.277344 -4.207031 1.804688 -5.308594 C 1.328125 -6.410156 1.089844 -7.601562 1.089844 -8.878906 C 1.089844 -10.15625 1.328125 -11.347656 1.804688 -12.449219 C 2.277344 -13.554688 2.941406 -14.523438 3.789062 -15.363281 C 4.636719 -16.199219 5.617188 -16.851562 6.734375 -17.316406 C 7.851562 -17.78125 9.050781 -18.011719 10.332031 -18.011719 C 11.800781 -18.011719 13.160156 -17.703125 14.417969 -17.089844 C 15.671875 -16.476562 16.726562 -15.640625 17.585938 -14.574219 C 18.441406 -13.511719 19.023438 -12.300781 19.328125 -10.941406 L 16.773438 -10.941406 C 16.488281 -11.871094 16.035156 -12.695312 15.410156 -13.414062 C 14.78125 -14.132812 14.035156 -14.695312 13.164062 -15.109375 C 12.296875 -15.519531 11.351562 -15.726562 10.332031 -15.726562 C 9.398438 -15.726562 8.523438 -15.550781 7.714844 -15.199219 C 6.902344 -14.847656 6.1875 -14.355469 5.574219 -13.730469 C 4.957031 -13.105469 4.472656 -12.378906 4.121094 -11.550781 C 3.769531 -10.722656 3.59375 -9.832031 3.59375 -8.878906 C 3.59375 -7.925781 3.769531 -7.035156 4.121094 -6.207031 C 4.472656 -5.378906 4.957031 -4.652344 5.574219 -4.027344 C 6.1875 -3.402344 6.902344 -2.914062 7.714844 -2.5625 C 8.523438 -2.210938 9.398438 -2.035156 10.332031 -2.035156 C 11.421875 -2.035156 12.425781 -2.269531 13.34375 -2.746094 C 14.257812 -3.21875 15.03125 -3.867188 15.667969 -4.691406 C 16.300781 -5.515625 16.722656 -6.441406 16.9375 -7.460938 Z M 16.9375 -7.460938 "/></g></g></g><g fill="#282828" fill-opacity="1"><g transform="translate(177.939863, 71.99709)"><g><path d="M 1.726562 0 L 1.726562 -12.101562 C 1.726562 -13.269531 1.972656 -14.296875 2.464844 -15.1875 C 2.953125 -16.074219 3.644531 -16.765625 4.53125 -17.265625 C 5.417969 -17.761719 6.4375 -18.011719 7.589844 -18.011719 C 8.757812 -18.011719 9.78125 -17.761719 10.660156 -17.265625 C 11.539062 -16.765625 12.226562 -16.074219 12.714844 -15.1875 C 13.207031 -14.296875 13.453125 -13.269531 13.453125 -12.101562 L 13.453125 0 L 11.019531 0 L 11.019531 -0.550781 C 11.019531 -2.292969 10.496094 -3.691406 9.453125 -4.742188 C 8.40625 -5.796875 6.894531 -6.320312 4.914062 -6.320312 L 3.242188 -6.320312 L 3.242188 -8.585938 L 4.410156 -8.585938 C 6.648438 -8.585938 8.433594 -8.152344 9.765625 -7.285156 C 11.097656 -6.421875 11.914062 -5.242188 12.214844 -3.75 L 11.019531 -3.792969 L 11.019531 -12.105469 C 11.019531 -12.804688 10.871094 -13.414062 10.574219 -13.9375 C 10.277344 -14.460938 9.871094 -14.878906 9.359375 -15.183594 C 8.84375 -15.488281 8.253906 -15.640625 7.589844 -15.640625 C 6.925781 -15.640625 6.332031 -15.488281 5.808594 -15.183594 C 5.285156 -14.878906 4.878906 -14.460938 4.589844 -13.9375 C 4.304688 -13.414062 4.160156 -12.804688 4.160156 -12.105469 L 4.160156 0 Z M 1.726562 0 "/></g></g></g></svg>