<svg xmlns="http://www.w3.org/2000/svg" xmlns:xlink="http://www.w3.org/1999/xlink" width="130" zoomAndPan="magnify" viewBox="0 0 375 74.999997" height="50" preserveAspectRatio="xMidYMid meet" version="1.0"><defs><g/><clipPath id="051f7592ab"><path d="M 34.851562 0 L 83.925781 0 L 83.925781 75 L 34.851562 75 Z M 34.851562 0 " clip-rule="nonzero"/></clipPath><clipPath id="9d24d09389"><path d="M 59.183594 0 L 75.28125 0 C 77.851562 0 80.285156 1.15625 81.902344 3.152344 C 83.523438 5.144531 84.160156 7.761719 83.632812 10.277344 L 72.246094 64.722656 C 70.992188 70.710938 65.714844 75 59.59375 75 L 43.496094 75 C 40.925781 75 38.492188 73.84375 36.875 71.847656 C 35.253906 69.855469 34.617188 67.238281 35.144531 64.722656 L 46.53125 10.277344 C 47.785156 4.289062 53.066406 0 59.183594 0 Z M 59.183594 0 " clip-rule="nonzero"/></clipPath><clipPath id="1cfb8b09bf"><path d="M 16.3125 16.902344 L 61.121094 16.902344 L 61.121094 75 L 16.3125 75 Z M 16.3125 16.902344 " clip-rule="nonzero"/></clipPath><clipPath id="314ea9c385"><path d="M 37.066406 16.902344 L 52.519531 16.902344 C 55.089844 16.902344 57.523438 18.058594 59.140625 20.054688 C 60.761719 22.046875 61.398438 24.664062 60.871094 27.179688 L 53.019531 64.722656 C 51.765625 70.710938 46.488281 75 40.367188 75 L 24.914062 75 C 22.34375 75 19.910156 73.84375 18.292969 71.847656 C 16.671875 69.855469 16.035156 67.238281 16.5625 64.722656 L 24.414062 27.179688 C 25.667969 21.191406 30.949219 16.902344 37.066406 16.902344 Z M 37.066406 16.902344 " clip-rule="nonzero"/></clipPath></defs><g clip-path="url(#051f7592ab)"><g clip-path="url(#9d24d09389)"><path fill="#16639b" d="M 32.996094 0 L 85.78125 0 L 85.78125 75.058594 L 32.996094 75.058594 Z M 32.996094 0 " fill-opacity="1" fill-rule="nonzero"/></g></g><g clip-path="url(#1cfb8b09bf)"><g clip-path="url(#314ea9c385)"><path fill="#1d84cf" d="M 14.414062 16.902344 L 63.019531 16.902344 L 63.019531 75.003906 L 14.414062 75.003906 Z M 14.414062 16.902344 " fill-opacity="1" fill-rule="nonzero"/></g></g><path stroke-linecap="butt" transform="matrix(0.75, 0, 0, 0.75, 99.750453, -17.444906)" fill="none" stroke-linejoin="miter" d="M 12.593147 111.999467 L 12.593147 38.838003 L 21.395231 38.838003 L 21.395231 104.348425 L 56.067109 104.348425 L 56.067109 111.999467 Z M 71.69211 111.999467 L 71.69211 104.98905 L 89.936903 104.98905 L 89.936903 45.84842 L 71.69211 45.84842 L 71.69211 38.838003 L 116.988989 38.838003 L 116.988989 45.84842 L 98.738987 45.84842 L 98.738987 104.98905 L 116.988989 104.98905 L 116.988989 111.999467 Z M 135.218157 111.999467 L 135.218157 38.838003 L 161.832743 38.838003 C 168.603576 38.838003 173.775452 40.686962 177.337952 44.390087 C 180.905661 48.093212 182.686911 53.259879 182.686911 59.895297 C 182.686911 66.535922 180.905661 71.713006 177.337952 75.431756 C 173.775452 79.134881 168.603576 80.98384 161.832743 80.98384 L 144.020241 80.98384 L 144.020241 111.999467 Z M 144.020241 73.332798 L 161.629618 73.332798 C 165.327535 73.332798 168.212951 72.400506 170.275452 70.541131 C 172.34316 68.681756 173.37441 66.046339 173.37441 62.63488 L 173.37441 57.186963 C 173.37441 53.754671 172.34316 51.119254 170.275452 49.275504 C 168.212951 47.416129 165.327535 46.489045 161.629618 46.489045 L 144.020241 46.489045 Z M 144.020241 73.332798 " stroke="#000000" stroke-width="2.620675" stroke-opacity="1" stroke-miterlimit="4"/><g fill="#000000" fill-opacity="1"><g transform="translate(99.750453, 66.555087)"><g><path d="M 9.4375 0 L 9.4375 -54.875 L 16.03125 -54.875 L 16.03125 -5.734375 L 42.0625 -5.734375 L 42.0625 0 Z M 9.4375 0 "/></g></g></g><g fill="#000000" fill-opacity="1"><g transform="translate(146.916026, 66.555087)"><g><path d="M 6.609375 0 L 6.609375 -5.265625 L 20.28125 -5.265625 L 20.28125 -49.609375 L 6.609375 -49.609375 L 6.609375 -54.875 L 40.5625 -54.875 L 40.5625 -49.609375 L 26.890625 -49.609375 L 26.890625 -5.265625 L 40.5625 -5.265625 L 40.5625 0 Z M 6.609375 0 "/></g></g></g><g fill="#000000" fill-opacity="1"><g transform="translate(194.081599, 66.555087)"><g><path d="M 7.078125 0 L 7.078125 -54.875 L 27.046875 -54.875 C 32.128906 -54.875 36.003906 -53.484375 38.671875 -50.703125 C 41.347656 -47.921875 42.6875 -44.039062 42.6875 -39.0625 C 42.6875 -34.082031 41.347656 -30.203125 38.671875 -27.421875 C 36.003906 -24.648438 32.128906 -23.265625 27.046875 -23.265625 L 13.671875 -23.265625 L 13.671875 0 Z M 13.671875 -29 L 26.890625 -29 C 29.660156 -29 31.816406 -29.691406 33.359375 -31.078125 C 34.910156 -32.472656 35.6875 -34.457031 35.6875 -37.03125 L 35.6875 -41.109375 C 35.6875 -43.679688 34.910156 -45.660156 33.359375 -47.046875 C 31.816406 -48.429688 29.660156 -49.125 26.890625 -49.125 L 13.671875 -49.125 Z M 13.671875 -29 "/></g></g></g><path fill="#d9ebf8" d="M 283.191406 9.898438 L 335.972656 9.898438 C 351.757812 9.898438 364.554688 22.695312 364.554688 38.480469 C 364.554688 54.265625 351.757812 67.0625 335.972656 67.0625 L 283.191406 67.0625 C 267.40625 67.0625 254.609375 54.265625 254.609375 38.480469 C 254.609375 22.695312 267.40625 9.898438 283.191406 9.898438 Z M 283.191406 9.898438 " fill-opacity="1" fill-rule="nonzero"/><g fill="#16639b" fill-opacity="1"><g transform="translate(271.86142, 48.982841)"><g><path d="M 2.859375 -21.5 L 11.703125 -21.5 C 13.492188 -21.5 14.894531 -20.992188 15.90625 -19.984375 C 16.925781 -18.984375 17.4375 -17.640625 17.4375 -15.953125 C 17.4375 -15.160156 17.320312 -14.484375 17.09375 -13.921875 C 16.875 -13.367188 16.585938 -12.910156 16.234375 -12.546875 C 15.890625 -12.191406 15.507812 -11.925781 15.09375 -11.75 C 14.6875 -11.582031 14.304688 -11.46875 13.953125 -11.40625 L 13.953125 -11.21875 C 14.347656 -11.195312 14.785156 -11.09375 15.265625 -10.90625 C 15.742188 -10.71875 16.195312 -10.421875 16.625 -10.015625 C 17.0625 -9.617188 17.425781 -9.109375 17.71875 -8.484375 C 18.019531 -7.859375 18.171875 -7.101562 18.171875 -6.21875 C 18.171875 -5.34375 18.03125 -4.523438 17.75 -3.765625 C 17.476562 -3.003906 17.097656 -2.34375 16.609375 -1.78125 C 16.117188 -1.226562 15.53125 -0.789062 14.84375 -0.46875 C 14.164062 -0.15625 13.429688 0 12.640625 0 L 2.859375 0 Z M 5.453125 -2.28125 L 11.828125 -2.28125 C 12.941406 -2.28125 13.816406 -2.5625 14.453125 -3.125 C 15.085938 -3.6875 15.40625 -4.515625 15.40625 -5.609375 L 15.40625 -6.65625 C 15.40625 -7.738281 15.085938 -8.5625 14.453125 -9.125 C 13.816406 -9.695312 12.941406 -9.984375 11.828125 -9.984375 L 5.453125 -9.984375 Z M 5.453125 -12.203125 L 11.40625 -12.203125 C 12.425781 -12.203125 13.222656 -12.457031 13.796875 -12.96875 C 14.378906 -13.488281 14.671875 -14.226562 14.671875 -15.1875 L 14.671875 -16.234375 C 14.671875 -17.203125 14.378906 -17.941406 13.796875 -18.453125 C 13.222656 -18.972656 12.425781 -19.234375 11.40625 -19.234375 L 5.453125 -19.234375 Z M 5.453125 -12.203125 "/></g></g></g><g fill="#16639b" fill-opacity="1"><g transform="translate(291.97599, 48.982841)"><g><path d="M 2.859375 0 L 2.859375 -21.5 L 15.984375 -21.5 L 15.984375 -19.234375 L 5.453125 -19.234375 L 5.453125 -12.015625 L 15.375 -12.015625 L 15.375 -9.734375 L 5.453125 -9.734375 L 5.453125 -2.28125 L 15.984375 -2.28125 L 15.984375 0 Z M 2.859375 0 "/></g></g></g><g fill="#16639b" fill-opacity="1"><g transform="translate(309.934317, 48.982841)"><g><path d="M 10.109375 -19.234375 L 10.109375 0 L 7.515625 0 L 7.515625 -19.234375 L 0.671875 -19.234375 L 0.671875 -21.5 L 16.953125 -21.5 L 16.953125 -19.234375 Z M 10.109375 -19.234375 "/></g></g></g><g fill="#16639b" fill-opacity="1"><g transform="translate(327.553816, 48.982841)"><g><path d="M 16.328125 0 L 14.171875 -6.34375 L 5.484375 -6.34375 L 3.328125 0 L 0.703125 0 L 8.234375 -21.5 L 11.53125 -21.5 L 19.046875 0 Z M 9.890625 -19.109375 L 9.734375 -19.109375 L 6.09375 -8.625 L 13.53125 -8.625 Z M 9.890625 -19.109375 "/></g></g></g></svg>