<svg xmlns="http://www.w3.org/2000/svg" xmlns:xlink="http://www.w3.org/1999/xlink" width="35" zoomAndPan="magnify" viewBox="0 0 375 374.999991" height="35" preserveAspectRatio="xMidYMid meet" version="1.0"><defs><clipPath id="f1085fb0c1"><path d="M 122.007812 28.578125 L 331.742188 28.578125 L 331.742188 346.671875 L 122.007812 346.671875 Z M 122.007812 28.578125 " clip-rule="nonzero"/></clipPath><clipPath id="ba8cb81e81"><path d="M 219 28.578125 L 301.230469 28.578125 C 310.40625 28.578125 319.09375 32.710938 324.878906 39.832031 C 330.664062 46.953125 332.933594 56.300781 331.054688 65.28125 L 279.925781 309.71875 C 275.453125 331.105469 256.597656 346.421875 234.75 346.421875 L 152.515625 346.421875 C 143.34375 346.421875 134.65625 342.289062 128.871094 335.167969 C 123.085938 328.046875 120.816406 318.699219 122.695312 309.71875 L 173.824219 65.28125 C 178.296875 43.894531 197.152344 28.578125 219 28.578125 Z M 219 28.578125 " clip-rule="nonzero"/></clipPath><clipPath id="40859e23c5"><path d="M 43 100.210938 L 235.832031 100.210938 L 235.832031 346.441406 L 43 346.441406 Z M 43 100.210938 " clip-rule="nonzero"/></clipPath><clipPath id="5625621175"><path d="M 125.269531 100.210938 L 204.769531 100.210938 C 213.941406 100.210938 222.628906 104.34375 228.414062 111.464844 C 234.199219 118.585938 236.46875 127.933594 234.589844 136.914062 L 198.445312 309.71875 C 193.972656 331.105469 175.117188 346.421875 153.269531 346.421875 L 73.769531 346.421875 C 64.59375 346.421875 55.90625 342.289062 50.121094 335.167969 C 44.335938 328.046875 42.066406 318.699219 43.945312 309.71875 L 80.089844 136.914062 C 84.5625 115.527344 103.417969 100.210938 125.269531 100.210938 Z M 125.269531 100.210938 " clip-rule="nonzero"/></clipPath></defs><g clip-path="url(#f1085fb0c1)"><g clip-path="url(#ba8cb81e81)"><path fill="#16639b" d="M 115.015625 28.578125 L 338.730469 28.578125 L 338.730469 346.671875 L 115.015625 346.671875 Z M 115.015625 28.578125 " fill-opacity="1" fill-rule="nonzero"/></g></g><g clip-path="url(#40859e23c5)"><g clip-path="url(#5625621175)"><path fill="#1d84cf" d="M 36.269531 100.210938 L 242.269531 100.210938 L 242.269531 346.441406 L 36.269531 346.441406 Z M 36.269531 100.210938 " fill-opacity="1" fill-rule="nonzero"/></g></g></svg>